<svg version="1.1" xmlns="http://www.w3.org/2000/svg" viewBox="0 0 1662.1757450242026 1064.1683417399483" width="1662.1757450242026" height="1064.1683417399483">
  <!-- svg-source:excalidraw -->
  
  <defs>
    <style class="style-fonts">
      @font-face {
        font-family: "Virgil";
        src: url("https://excalidraw.com/Virgil.woff2");
      }
      @font-face {
        font-family: "Cascadia";
        src: url("https://excalidraw.com/Cascadia.woff2");
      }
      @font-face {
        font-family: "Assistant";
        src: url("https://excalidraw.com/Assistant-Regular.woff2");
      }
    </style>
    
  </defs>
  <g stroke-linecap="round" transform="translate(557.1520109963508 436.3443455480825) rotate(0 175.4846706902007 45.09129504312281)"><path d="M0 0 C103.66 -1.44, 204.7 -1.87, 350.97 0 M0 0 C84.63 -2.83, 168.6 -1.97, 350.97 0 M350.97 0 C351.68 30.44, 352.87 63.82, 350.97 90.18 M350.97 0 C351.54 20.04, 350.74 40.96, 350.97 90.18 M350.97 90.18 C213.72 91.05, 77.59 91.11, 0 90.18 M350.97 90.18 C252.05 92.41, 153.22 91.72, 0 90.18 M0 90.18 C0.06 58.15, -0.86 21.17, 0 0 M0 90.18 C-0.36 59.93, 1.19 30.87, 0 0" stroke="#1e1e1e" stroke-width="2" fill="none"></path></g><g transform="translate(607.4711238252233 459.72941356781416) rotate(0 125.16555786132812 21.706227023391193)"><text x="125.16555786132812" y="30.423447795985112" font-family="Virgil, Segoe UI Emoji" font-size="34.72996323742593px" fill="#1e1e1e" text-anchor="middle" style="white-space: pre;" direction="ltr" dominant-baseline="alphabetic">friendly_errors</text></g><g stroke-linecap="round" transform="translate(558.393335854251 407.48184680291706) rotate(0 23.625871475772385 13.708839004460486)"><path d="M0 0 C13.01 0.53, 27.39 -0.68, 47.25 0 M0 0 C11.78 -0.01, 23.29 0.57, 47.25 0 M47.25 0 C46.84 7.97, 47.84 16.1, 47.25 27.42 M47.25 0 C46.89 6.79, 47.59 12.7, 47.25 27.42 M47.25 27.42 C31.29 27.66, 15.06 28.12, 0 27.42 M47.25 27.42 C29.98 27.26, 12.53 27.31, 0 27.42 M0 27.42 C-0.2 19.76, 0.38 11.38, 0 0 M0 27.42 C0.41 17.55, -0.07 9.07, 0 0" stroke="#1e1e1e" stroke-width="2" fill="none"></path></g><g stroke-linecap="round" transform="translate(545.6776480808148 10) rotate(0 175.47224813432825 102.64400652985071)"><path d="M32 0 C133.26 0.04, 235.59 2.51, 318.94 0 M32 0 C89.55 -2.49, 147.78 -1.72, 318.94 0 M318.94 0 C338.53 -0.88, 350.66 9.79, 350.94 32 M318.94 0 C338.84 1.33, 351.04 10.48, 350.94 32 M350.94 32 C352.84 70.47, 351.35 110.03, 350.94 173.29 M350.94 32 C352.25 65.36, 351.46 97.88, 350.94 173.29 M350.94 173.29 C350.93 195.79, 342.23 204.97, 318.94 205.29 M350.94 173.29 C351.41 193.25, 339.88 204.91, 318.94 205.29 M318.94 205.29 C227.16 206.61, 137.5 207.39, 32 205.29 M318.94 205.29 C240.98 206.88, 160.98 206.89, 32 205.29 M32 205.29 C10.77 205.11, 0.33 194.35, 0 173.29 M32 205.29 C12.46 204.41, 0.17 195.27, 0 173.29 M0 173.29 C0.85 130, 0.75 86.27, 0 32 M0 173.29 C0.37 119.94, -0.4 67.59, 0 32 M0 32 C-1.32 11.28, 9.36 0.33, 32 0 M0 32 C0.78 12.12, 9.99 -0.85, 32 0" stroke="#1e1e1e" stroke-width="2" fill="none"></path></g><g transform="translate(550.6776480808148 90.28801305970143) rotate(0 164.0625 60)"><text x="0" y="19.3125" font-family="Cascadia, Segoe UI Emoji" font-size="20px" fill="#1e1e1e" text-anchor="start" style="white-space: pre;" direction="ltr" dominant-baseline="alphabetic"> p5._friendlyError()</text><text x="0" y="43.3125" font-family="Cascadia, Segoe UI Emoji" font-size="20px" fill="#1e1e1e" text-anchor="start" style="white-space: pre;" direction="ltr" dominant-baseline="alphabetic"> p5._validateParameters()</text><text x="0" y="67.3125" font-family="Cascadia, Segoe UI Emoji" font-size="20px" fill="#1e1e1e" text-anchor="start" style="white-space: pre;" direction="ltr" dominant-baseline="alphabetic"> p5._friendlyFileLoadError()</text><text x="0" y="91.3125" font-family="Cascadia, Segoe UI Emoji" font-size="20px" fill="#1e1e1e" text-anchor="start" style="white-space: pre;" direction="ltr" dominant-baseline="alphabetic"> p5._friendlyAutoplayError()</text><text x="0" y="115.3125" font-family="Cascadia, Segoe UI Emoji" font-size="20px" fill="#1e1e1e" text-anchor="start" style="white-space: pre;" direction="ltr" dominant-baseline="alphabetic"></text></g><g stroke-linecap="round" transform="translate(571.937029441059 31.520299779511504) rotate(0 150.61071595149247 19.613800669945704)"><path d="M9.81 0 C88.79 1, 165.16 1.42, 291.41 0 M9.81 0 C72.01 -1.54, 133.56 -1.7, 291.41 0 M291.41 0 C299.1 1.84, 299.27 1.47, 301.22 9.81 M291.41 0 C300.07 -1.79, 299.72 1.75, 301.22 9.81 M301.22 9.81 C300.77 15.55, 299.82 24.14, 301.22 29.42 M301.22 9.81 C301.73 15.55, 301.76 21.7, 301.22 29.42 M301.22 29.42 C300.86 36.91, 296.69 40.98, 291.41 39.23 M301.22 29.42 C301.29 36.12, 297.78 37.56, 291.41 39.23 M291.41 39.23 C236.31 40.24, 178.53 39.57, 9.81 39.23 M291.41 39.23 C211.13 40.13, 131.73 39.52, 9.81 39.23 M9.81 39.23 C4.26 40.05, -0.52 37.7, 0 29.42 M9.81 39.23 C4.6 41.3, 1.03 33.92, 0 29.42 M0 29.42 C0.31 22.38, 1.52 15.12, 0 9.81 M0 29.42 C-0.75 23.79, -0.13 17.1, 0 9.81 M0 9.81 C-0.26 1.75, 4.73 -0.27, 9.81 0 M0 9.81 C1.29 3.69, 1.86 -1.37, 9.81 0" stroke="#1e1e1e" stroke-width="2" fill="none"></path></g><g transform="translate(711.437760040989 38.63410044945721) rotate(0 11.1099853515625 12.5)"><text x="11.1099853515625" y="17.52" font-family="Virgil, Segoe UI Emoji" font-size="20px" fill="#1e1e1e" text-anchor="middle" style="white-space: pre;" direction="ltr" dominant-baseline="alphabetic">p5</text></g><g stroke-linecap="round" transform="translate(1034.862980297571 76.12348414179101) rotate(0 186.15613339552237 66.1537383197159)"><path d="M32 0 C118.58 0.77, 205.32 -0.97, 340.31 0 M32 0 C99.36 0.54, 166.23 -0.09, 340.31 0 M340.31 0 C363.55 1.76, 370.38 12.25, 372.31 32 M340.31 0 C362.77 0.33, 371.15 8.66, 372.31 32 M372.31 32 C371.43 51.06, 370.84 65.77, 372.31 100.31 M372.31 32 C372.95 59.65, 373.08 86.32, 372.31 100.31 M372.31 100.31 C370.74 123.51, 361.99 133.83, 340.31 132.31 M372.31 100.31 C373.12 119.69, 359.37 134.1, 340.31 132.31 M340.31 132.31 C235.92 132.32, 129.74 130.5, 32 132.31 M340.31 132.31 C273.57 134.07, 206.55 133.93, 32 132.31 M32 132.31 C12.15 133.57, -1.43 121.73, 0 100.31 M32 132.31 C12.52 131.77, 1.97 119.85, 0 100.31 M0 100.31 C-0.88 74.15, 0.56 51.97, 0 32 M0 100.31 C0.31 75.39, 0.78 52.38, 0 32 M0 32 C1.94 12.04, 12.15 1.21, 32 0 M0 32 C-1.03 9.02, 9.43 0.44, 32 0" stroke="#1e1e1e" stroke-width="2" fill="none"></path></g><g transform="translate(1039.862980297571 156.26745611298344) rotate(0 132.4072265625 23.581752334119685)"><text x="0" y="18.975941331361938" font-family="Cascadia, Segoe UI Emoji" font-size="19.651460278433074px" fill="#1e1e1e" text-anchor="start" style="white-space: pre;" direction="ltr" dominant-baseline="alphabetic">  p5._fesErrorMonitor()</text><text x="0" y="42.55769366548162" font-family="Cascadia, Segoe UI Emoji" font-size="19.651460278433074px" fill="#1e1e1e" text-anchor="start" style="white-space: pre;" direction="ltr" dominant-baseline="alphabetic"></text></g><g stroke-linecap="round" transform="translate(1061.0869408521635 93.18593035926249) rotate(0 158.12578077578712 22.572294776119403)"><path d="M11.29 0 C115.32 2.65, 221.82 1.44, 304.97 0 M11.29 0 C124.97 0.73, 236.52 0.67, 304.97 0 M304.97 0 C313.47 0.29, 315.24 2.02, 316.25 11.29 M304.97 0 C311.54 -1.73, 317.66 3.34, 316.25 11.29 M316.25 11.29 C318.01 21.13, 316.22 28.2, 316.25 33.86 M316.25 11.29 C315.52 20.77, 316.48 29.15, 316.25 33.86 M316.25 33.86 C316.95 39.69, 310.51 46.7, 304.97 45.14 M316.25 33.86 C317.21 42.43, 312.02 46.67, 304.97 45.14 M304.97 45.14 C206.25 43.05, 110.85 42.87, 11.29 45.14 M304.97 45.14 C195.46 46.82, 84.32 46.39, 11.29 45.14 M11.29 45.14 C5.37 44.67, 1.71 39.82, 0 33.86 M11.29 45.14 C5.25 44.74, 0.02 40.23, 0 33.86 M0 33.86 C1.02 27.73, -1.84 23.24, 0 11.29 M0 33.86 C0.85 29.53, 0.63 24.43, 0 11.29 M0 11.29 C-0.9 2.33, 2.69 0.38, 11.29 0 M0 11.29 C-0.35 2.87, 2.31 0.47, 11.29 0" stroke="#1e1e1e" stroke-width="2" fill="none"></path></g><g transform="translate(1069.371779245138 103.47606246136121) rotate(0 149.8409423828125 12.282162674020672)"><text x="149.8409423828125" y="17.214679203907373" font-family="Virgil, Segoe UI Emoji" font-size="19.651460278433074px" fill="#1e1e1e" text-anchor="middle" style="white-space: pre;" direction="ltr" dominant-baseline="alphabetic">test/unit/core/error_helpers.js</text></g><g mask="url(#mask-KFVciDhHs85UaEAK47Bea)" stroke-linecap="round"><g transform="translate(709.4040656351282 425.1193532220525) rotate(0 12.710917081766581 -99.50230720804123)"><path d="M0.13 0.84 C2.82 -16.75, 11.05 -72.23, 15.13 -105.51 C19.21 -138.8, 23.06 -183.34, 24.58 -198.85 M-1.27 0.23 C1.4 -17.73, 9.67 -74.46, 14.38 -107.41 C19.1 -140.36, 25.46 -182.47, 27.04 -197.46" stroke="#1e1e1e" stroke-width="2" fill="none"></path></g><g transform="translate(709.4040656351282 425.1193532220525) rotate(0 12.710917081766581 -99.50230720804123)"><path d="M27.5 -195.75 L31.22 -184.53 L19.43 -184.28 L26.13 -197.01" stroke="none" stroke-width="0" fill="#1e1e1e" fill-rule="evenodd"></path><path d="M27.04 -197.46 C29.05 -193.95, 29.51 -192.44, 31.6 -183.17 M27.04 -197.46 C28.59 -192.69, 30.32 -188.52, 31.6 -183.17 M31.6 -183.17 C26.52 -184.23, 22.63 -185.11, 19.02 -184.78 M31.6 -183.17 C27.59 -183.22, 24.25 -184.39, 19.02 -184.78 M19.02 -184.78 C21.11 -188.77, 21.3 -191.42, 27.04 -197.46 M19.02 -184.78 C21.67 -188.59, 22.86 -191.51, 27.04 -197.46 M27.04 -197.46 C27.04 -197.46, 27.04 -197.46, 27.04 -197.46 M27.04 -197.46 C27.04 -197.46, 27.04 -197.46, 27.04 -197.46" stroke="#1e1e1e" stroke-width="2" fill="none"></path></g></g><mask id="mask-KFVciDhHs85UaEAK47Bea"><rect x="0" y="0" fill="#fff" width="834.8258997986613" height="724.1239676381349"></rect><rect x="625.7728927382095" y="296.17677238805953" fill="#000" width="196.7578125" height="46" opacity="1"></rect></mask><g transform="translate(625.7728927382095 296.1767723880596) rotate(0 96.51581644395878 29.93487282636437)"><text x="98.37890625" y="18.400390625" font-family="Helvetica, Segoe UI Emoji" font-size="20px" fill="#1e1e1e" text-anchor="middle" style="white-space: pre;" direction="ltr" dominant-baseline="alphabetic">used for printing error </text><text x="98.37890625" y="41.400390625" font-family="Helvetica, Segoe UI Emoji" font-size="20px" fill="#1e1e1e" text-anchor="middle" style="white-space: pre;" direction="ltr" dominant-baseline="alphabetic">messages</text></g><g mask="url(#mask-sVSb-5hvaPqbO2JjVdaRb)" stroke-linecap="round"><g transform="translate(923.2746020538474 474.79479529015487) rotate(0 142.37875672209702 -122.46561126448049)"><path d="M-0.11 -0.59 C29.69 -16.58, 130.32 -54.82, 177.87 -95.66 C225.42 -136.49, 267.25 -220.77, 285.19 -245.6 M-1.63 1.71 C28.13 -14.62, 129.44 -56.25, 177.15 -97.31 C224.87 -138.37, 266.48 -220.29, 284.65 -244.63" stroke="#1e1e1e" stroke-width="2" fill="none"></path></g><g transform="translate(923.2746020538474 474.79479529015487) rotate(0 142.37875672209702 -122.46561126448049)"><path d="M284.47 -245.51 L282.79 -228.85 L273.8 -237.6 L284.06 -243.1" stroke="none" stroke-width="0" fill="#1e1e1e" fill-rule="evenodd"></path><path d="M284.65 -244.63 C283.5 -240.78, 284.93 -237.47, 282.68 -229.76 M284.65 -244.63 C284.55 -241.02, 283.66 -237.76, 282.68 -229.76 M282.68 -229.76 C280.46 -232.84, 277.01 -232.97, 271.99 -236.58 M282.68 -229.76 C279.27 -232.6, 274.51 -234.93, 271.99 -236.58 M271.99 -236.58 C275.76 -239.33, 276.23 -241.28, 284.65 -244.63 M271.99 -236.58 C274.54 -238.41, 278.37 -240.31, 284.65 -244.63 M284.65 -244.63 C284.65 -244.63, 284.65 -244.63, 284.65 -244.63 M284.65 -244.63 C284.65 -244.63, 284.65 -244.63, 284.65 -244.63" stroke="#1e1e1e" stroke-width="2" fill="none"></path></g></g><mask id="mask-sVSb-5hvaPqbO2JjVdaRb"><rect x="0" y="0" fill="#fff" width="1308.0321154980415" height="819.7260178191159"></rect><rect x="1013.4447385870901" y="366.73694029850714" fill="#000" width="174.55078125" height="23" opacity="1"></rect></mask><g transform="translate(1013.4447385870901 366.73694029850714) rotate(0 51.60721900998942 -13.884061253768351)"><text x="87.275390625" y="18.400390625" font-family="Helvetica, Segoe UI Emoji" font-size="20px" fill="#1e1e1e" text-anchor="middle" style="white-space: pre;" direction="ltr" dominant-baseline="alphabetic">used for unit testing</text></g><g stroke-linecap="round" transform="translate(10 725.6028892941789) rotate(0 175.47224813432823 102.64400652985074)"><path d="M32 0 C145.9 -0.39, 258.77 -0.83, 318.94 0 M32 0 C117.4 0.74, 203.99 1.04, 318.94 0 M318.94 0 C338.37 -1.65, 352.36 12.12, 350.94 32 M318.94 0 C341.22 -2.2, 350.59 8.43, 350.94 32 M350.94 32 C352.31 74.19, 352.29 118.85, 350.94 173.29 M350.94 32 C349.86 76.95, 349.42 121.84, 350.94 173.29 M350.94 173.29 C352.91 193.55, 341.8 203.88, 318.94 205.29 M350.94 173.29 C353.03 195.93, 342.44 203.14, 318.94 205.29 M318.94 205.29 C247.38 202.28, 171.37 202.47, 32 205.29 M318.94 205.29 C218.33 203.61, 116.84 203.39, 32 205.29 M32 205.29 C12.49 206.45, 1.33 194.81, 0 173.29 M32 205.29 C9.57 204.28, 0.23 196.62, 0 173.29 M0 173.29 C0.53 146.1, -1.67 115.24, 0 32 M0 173.29 C2.2 134.92, 2.19 94.76, 0 32 M0 32 C1.28 10.87, 10.83 1.89, 32 0 M0 32 C1.95 11.8, 12.84 2.2, 32 0" stroke="#1e1e1e" stroke-width="2" fill="none"></path></g><g transform="translate(15 805.8909023538803) rotate(0 152.34375 60)"><text x="0" y="19.3125" font-family="Cascadia, Segoe UI Emoji" font-size="20px" fill="#1e1e1e" text-anchor="start" style="white-space: pre;" direction="ltr" dominant-baseline="alphabetic">  _report()</text><text x="0" y="43.3125" font-family="Cascadia, Segoe UI Emoji" font-size="20px" fill="#1e1e1e" text-anchor="start" style="white-space: pre;" direction="ltr" dominant-baseline="alphabetic">  _friendlyError()</text><text x="0" y="67.3125" font-family="Cascadia, Segoe UI Emoji" font-size="20px" fill="#1e1e1e" text-anchor="start" style="white-space: pre;" direction="ltr" dominant-baseline="alphabetic">  _fesErrorMonitor()</text><text x="0" y="91.3125" font-family="Cascadia, Segoe UI Emoji" font-size="20px" fill="#1e1e1e" text-anchor="start" style="white-space: pre;" direction="ltr" dominant-baseline="alphabetic">  _friendlyAutoplayError()</text><text x="0" y="115.3125" font-family="Cascadia, Segoe UI Emoji" font-size="20px" fill="#1e1e1e" text-anchor="start" style="white-space: pre;" direction="ltr" dominant-baseline="alphabetic"></text></g><g stroke-linecap="round" transform="translate(36.17948079206258 747.167578278236) rotate(0 150.6107159514925 19.613800669945704)"><path d="M9.81 0 C87.26 -0.33, 164.18 0.36, 291.41 0 M9.81 0 C91.4 -1.32, 175 -0.13, 291.41 0 M291.41 0 C298.77 -1.91, 300.91 1.33, 301.22 9.81 M291.41 0 C298.04 0.81, 303.24 4.27, 301.22 9.81 M301.22 9.81 C301.6 13.26, 301.52 20.42, 301.22 29.42 M301.22 9.81 C302.13 15.98, 301.91 22.51, 301.22 29.42 M301.22 29.42 C303.03 37.09, 299.83 37.36, 291.41 39.23 M301.22 29.42 C300.18 38.26, 295.92 41.51, 291.41 39.23 M291.41 39.23 C228.17 38.23, 161.89 38.16, 9.81 39.23 M291.41 39.23 C192.05 40.24, 91.8 39.87, 9.81 39.23 M9.81 39.23 C2.31 38.35, 0.2 37.7, 0 29.42 M9.81 39.23 C1.02 41.5, 1.09 38.17, 0 29.42 M0 29.42 C-0.44 20.32, -0.55 16.62, 0 9.81 M0 29.42 C0.46 22.32, -0.09 15.95, 0 9.81 M0 9.81 C1.7 4.26, 5.16 1.92, 9.81 0 M0 9.81 C0.49 1.64, 5.34 -1.9, 9.81 0" stroke="#1e1e1e" stroke-width="2" fill="none"></path></g><g transform="translate(130.99025472695348 754.2813789481817) rotate(0 55.79994201660156 12.5)"><text x="55.79994201660156" y="17.52" font-family="Virgil, Segoe UI Emoji" font-size="20px" fill="#1e1e1e" text-anchor="middle" style="white-space: pre;" direction="ltr" dominant-baseline="alphabetic">fes_core.js</text></g><g stroke-linecap="round" transform="translate(862.023325771617 725.0028796632095) rotate(0 175.47224813432825 126.77841704121431)"><path d="M32 0 C143.56 1.48, 253.37 2.22, 318.94 0 M32 0 C99.19 -1.01, 166.02 -1.04, 318.94 0 M318.94 0 C342.19 -1.13, 352.27 9.04, 350.94 32 M318.94 0 C339.28 1.98, 353.08 11.88, 350.94 32 M350.94 32 C352.19 101.82, 350.67 174.77, 350.94 221.56 M350.94 32 C351 98.23, 351.06 164.78, 350.94 221.56 M350.94 221.56 C350.34 244.06, 339.6 254.03, 318.94 253.56 M350.94 221.56 C349.78 240.83, 338.72 254.59, 318.94 253.56 M318.94 253.56 C216.23 253.21, 111.01 250.89, 32 253.56 M318.94 253.56 C251.85 255.23, 184.51 255.09, 32 253.56 M32 253.56 C10.51 255.41, 1.68 243.89, 0 221.56 M32 253.56 C12.5 253.8, 2.28 241.68, 0 221.56 M0 221.56 C0.45 173.54, -1.28 121.28, 0 32 M0 221.56 C0.89 177.07, 0.39 131.07, 0 32 M0 32 C1.05 10.33, 9.77 -0.87, 32 0 M0 32 C1.57 12.41, 9.31 -0.23, 32 0" stroke="#1e1e1e" stroke-width="2" fill="none"></path></g><g transform="translate(867.023325771617 805.5597137456381) rotate(0 164.06249999999994 84)"><text x="0" y="19.3125" font-family="Cascadia, Segoe UI Emoji" font-size="20px" fill="#1e1e1e" text-anchor="start" style="white-space: pre;" direction="ltr" dominant-baseline="alphabetic"> _validateParameters()</text><text x="0" y="43.3125" font-family="Cascadia, Segoe UI Emoji" font-size="20px" fill="#1e1e1e" text-anchor="start" style="white-space: pre;" direction="ltr" dominant-baseline="alphabetic"> _friendlyParamError()</text><text x="0" y="67.3125" font-family="Cascadia, Segoe UI Emoji" font-size="20px" fill="#1e1e1e" text-anchor="start" style="white-space: pre;" direction="ltr" dominant-baseline="alphabetic"> _getValidateParamsArgTree()</text><text x="0" y="91.3125" font-family="Cascadia, Segoe UI Emoji" font-size="20px" fill="#1e1e1e" text-anchor="start" style="white-space: pre;" direction="ltr" dominant-baseline="alphabetic"> _clearValidateParamsCache()</text><text x="0" y="115.3125" font-family="Cascadia, Segoe UI Emoji" font-size="20px" fill="#1e1e1e" text-anchor="start" style="white-space: pre;" direction="ltr" dominant-baseline="alphabetic"></text><text x="0" y="139.3125" font-family="Cascadia, Segoe UI Emoji" font-size="20px" fill="#1e1e1e" text-anchor="start" style="white-space: pre;" direction="ltr" dominant-baseline="alphabetic"> class err</text><text x="0" y="163.3125" font-family="Cascadia, Segoe UI Emoji" font-size="20px" fill="#1e1e1e" text-anchor="start" style="white-space: pre;" direction="ltr" dominant-baseline="alphabetic"></text></g><g stroke-linecap="round" transform="translate(888.5046531545888 746.4876680790848) rotate(0 150.61071595149252 19.613800669945704)"><path d="M9.81 0 C94.79 -2.24, 182.82 -0.12, 291.41 0 M9.81 0 C108.81 -1.41, 206.85 -1.6, 291.41 0 M291.41 0 C297.08 1.72, 303.08 4.32, 301.22 9.81 M291.41 0 C299.61 -0.68, 300.18 5.35, 301.22 9.81 M301.22 9.81 C302.2 14.25, 302.38 21.77, 301.22 29.42 M301.22 9.81 C301.09 16.6, 301.06 22.47, 301.22 29.42 M301.22 29.42 C300.21 34.17, 296.6 40.13, 291.41 39.23 M301.22 29.42 C302.63 37.87, 295.99 40.67, 291.41 39.23 M291.41 39.23 C178.02 36.67, 68.08 38.98, 9.81 39.23 M291.41 39.23 C222.7 38.34, 154.74 38.01, 9.81 39.23 M9.81 39.23 C4.87 39.44, 1.98 34.91, 0 29.42 M9.81 39.23 C2.38 40.35, -0.37 37.53, 0 29.42 M0 29.42 C-1.19 21.41, -1.74 15.21, 0 9.81 M0 29.42 C0.55 22.35, -0.4 15.19, 0 9.81 M0 9.81 C1.37 4.78, 2.09 -0.2, 9.81 0 M0 9.81 C2.02 2.06, 5.24 1.06, 9.81 0" stroke="#1e1e1e" stroke-width="2" fill="none"></path></g><g transform="translate(944.8754475362571 753.6014687490305) rotate(0 94.23992156982428 12.5)"><text x="94.23992156982422" y="17.52" font-family="Virgil, Segoe UI Emoji" font-size="20px" fill="#1e1e1e" text-anchor="middle" style="white-space: pre;" direction="ltr" dominant-baseline="alphabetic">validate_params.js</text></g><g stroke-linecap="round" transform="translate(435.96145245208527 722.5134671003105) rotate(0 175.47224813432825 67.89613721166899)"><path d="M32 0 C141.35 2.08, 251.79 3.15, 318.94 0 M32 0 C105.47 2.36, 179.28 2.46, 318.94 0 M318.94 0 C339.86 -1.21, 351.9 9.23, 350.94 32 M318.94 0 C341.49 -0.49, 351.98 11.33, 350.94 32 M350.94 32 C351.26 57.17, 349.04 76.65, 350.94 103.79 M350.94 32 C350.12 51.59, 350.88 70.45, 350.94 103.79 M350.94 103.79 C348.98 123.31, 341.6 134.18, 318.94 135.79 M350.94 103.79 C352.07 124.83, 339.22 136.2, 318.94 135.79 M318.94 135.79 C255.87 136.52, 194.9 136.34, 32 135.79 M318.94 135.79 C222.75 134.97, 125.92 135.58, 32 135.79 M32 135.79 C11.62 137.08, 1.48 126.12, 0 103.79 M32 135.79 C9.06 136.55, 0.05 122.97, 0 103.79 M0 103.79 C0.95 76.53, 1.5 46.99, 0 32 M0 103.79 C-0.3 79.38, -1.11 55, 0 32 M0 32 C0.94 10.27, 10.29 -0.55, 32 0 M0 32 C2.22 10.33, 10.42 0.5, 32 0" stroke="#1e1e1e" stroke-width="2" fill="none"></path></g><g transform="translate(440.96145245208527 805.3057415236485) rotate(0 152.34375 24)"><text x="0" y="19.3125" font-family="Cascadia, Segoe UI Emoji" font-size="20px" fill="#1e1e1e" text-anchor="start" style="white-space: pre;" direction="ltr" dominant-baseline="alphabetic">  _friendlyFileLoadError()</text><text x="0" y="43.3125" font-family="Cascadia, Segoe UI Emoji" font-size="20px" fill="#1e1e1e" text-anchor="start" style="white-space: pre;" direction="ltr" dominant-baseline="alphabetic"></text></g><g stroke-linecap="round" transform="translate(462.04327699414796 744.0781560843676) rotate(0 150.61071595149247 19.613800669945704)"><path d="M9.81 0 C95.49 -1.7, 181.25 -2.08, 291.41 0 M9.81 0 C115.77 -2.4, 222.41 -2.49, 291.41 0 M291.41 0 C299 -0.43, 302.12 3.85, 301.22 9.81 M291.41 0 C298.5 -1.62, 300.97 4.22, 301.22 9.81 M301.22 9.81 C300.41 16.57, 301.43 24.46, 301.22 29.42 M301.22 9.81 C300.32 15.85, 301.93 22.89, 301.22 29.42 M301.22 29.42 C302.2 35.7, 297.03 39.58, 291.41 39.23 M301.22 29.42 C299.35 38.13, 299.45 38.64, 291.41 39.23 M291.41 39.23 C220.09 38.43, 147.37 38.11, 9.81 39.23 M291.41 39.23 C221.71 40.35, 151.84 40.24, 9.81 39.23 M9.81 39.23 C1.87 39.88, 0.04 34.08, 0 29.42 M9.81 39.23 C5.41 37.1, 1.74 36.28, 0 29.42 M0 29.42 C0.72 24.16, -0.23 16.32, 0 9.81 M0 29.42 C0.56 23.22, -0.08 17.15, 0 9.81 M0 9.81 C1.93 2.98, 3.05 0.44, 9.81 0 M0 9.81 C-1.01 5.47, 2.1 -1.7, 9.81 0" stroke="#1e1e1e" stroke-width="2" fill="none"></path></g><g transform="translate(548.454064661949 751.1919567543133) rotate(0 64.1999282836914 12.5)"><text x="64.1999282836914" y="17.52" font-family="Virgil, Segoe UI Emoji" font-size="20px" fill="#1e1e1e" text-anchor="middle" style="white-space: pre;" direction="ltr" dominant-baseline="alphabetic">file_errors.js</text></g><g stroke-linecap="round" transform="translate(1301.2312487555464 725.3892735529114) rotate(0 175.4722481343282 67.89613721166893)"><path d="M32 0 C109.59 2.12, 183.62 1.59, 318.94 0 M32 0 C144.56 -1.34, 257.37 -1.48, 318.94 0 M318.94 0 C341.39 -1.76, 349.98 10.14, 350.94 32 M318.94 0 C341.56 -0.32, 352.66 8.43, 350.94 32 M350.94 32 C353.45 58.97, 351.49 86.14, 350.94 103.79 M350.94 32 C350.51 50.33, 351.39 67.37, 350.94 103.79 M350.94 103.79 C349.26 123.62, 340.41 134.29, 318.94 135.79 M350.94 103.79 C349.73 125.18, 339.51 133.7, 318.94 135.79 M318.94 135.79 C253.28 133.62, 186.65 135.14, 32 135.79 M318.94 135.79 C256.75 136.5, 194.44 136.6, 32 135.79 M32 135.79 C11.59 134.5, 0.84 124.74, 0 103.79 M32 135.79 C11.05 133.87, -1.19 123.15, 0 103.79 M0 103.79 C-0.53 80.41, 0.96 56.39, 0 32 M0 103.79 C-1.09 88.36, 0.07 73.35, 0 32 M0 32 C1.32 12.58, 12.22 -1, 32 0 M0 32 C2.11 9.18, 9.88 -0.8, 32 0" stroke="#1e1e1e" stroke-width="2" fill="none"></path></g><g transform="translate(1306.2312487555464 808.1815479762494) rotate(0 146.484375 24)"><text x="0" y="19.3125" font-family="Cascadia, Segoe UI Emoji" font-size="20px" fill="#1e1e1e" text-anchor="start" style="white-space: pre;" direction="ltr" dominant-baseline="alphabetic">  __getErrorStackParser()</text><text x="0" y="43.3125" font-family="Cascadia, Segoe UI Emoji" font-size="20px" fill="#1e1e1e" text-anchor="start" style="white-space: pre;" direction="ltr" dominant-baseline="alphabetic"></text></g><g stroke-linecap="round" transform="translate(1327.3840960248817 746.9539625369682) rotate(0 150.61071595149247 19.613800669945704)"><path d="M9.81 0 C120.87 -1.89, 229.94 -0.92, 291.41 0 M9.81 0 C87.89 0.26, 164.76 0.73, 291.41 0 M291.41 0 C299.07 -0.28, 302.71 1.33, 301.22 9.81 M291.41 0 C299.54 1.95, 299.13 5.45, 301.22 9.81 M301.22 9.81 C300.27 16.53, 299.51 21.37, 301.22 29.42 M301.22 9.81 C300.45 15.47, 301.35 21.88, 301.22 29.42 M301.22 29.42 C300.16 36.01, 297.28 37.41, 291.41 39.23 M301.22 29.42 C299.67 37.53, 295.78 40.92, 291.41 39.23 M291.41 39.23 C208.17 40.67, 128.33 40.71, 9.81 39.23 M291.41 39.23 C225.26 37.65, 158.72 38, 9.81 39.23 M9.81 39.23 C3.6 37.55, -1.03 34.24, 0 29.42 M9.81 39.23 C4.2 38.84, -0.63 35.21, 0 29.42 M0 29.42 C-1.85 23.74, 1.87 14.32, 0 9.81 M0 29.42 C0.54 25.23, 0.66 18.67, 0 9.81 M0 9.81 C1.83 1.97, 2.59 -0.7, 9.81 0 M0 9.81 C1.53 4.56, 3.74 0.57, 9.81 0" stroke="#1e1e1e" stroke-width="2" fill="none"></path></g><g transform="translate(1411.7948684338935 754.0677632069139) rotate(0 66.19994354248047 12.5)"><text x="66.19994354248047" y="17.52" font-family="Virgil, Segoe UI Emoji" font-size="20px" fill="#1e1e1e" text-anchor="middle" style="white-space: pre;" direction="ltr" dominant-baseline="alphabetic">stacktrace.js</text></g><g stroke-linecap="round"><g transform="translate(716.1268772339128 537.8136940768172) rotate(0 29.896129261363626 56.58291903409085)"><path d="M-0.52 -0.6 C9.63 18.23, 50.95 92.92, 60.96 112.07 M1.41 1.69 C11.49 20.73, 51.08 94.56, 60.62 113.02" stroke="#1e1e1e" stroke-width="2" fill="none"></path></g></g><mask></mask><g stroke-linecap="round"><g transform="translate(571.9432953393509 652.1663304992785) rotate(0 19.806834808673273 34.306444225745906)"><path d="M0 0 C6.6 11.44, 33.01 57.18, 39.61 68.61 M0 0 C6.6 11.44, 33.01 57.18, 39.61 68.61" stroke="#1e1e1e" stroke-width="2" fill="none"></path></g></g><mask></mask><g stroke-linecap="round"><g transform="translate(146.05296412788704 652.5761577767247) rotate(0 19.8068348086733 34.306444225745906)"><path d="M0 0 C6.6 11.44, 33.01 57.18, 39.61 68.61 M0 0 C6.6 11.44, 33.01 57.18, 39.61 68.61" stroke="#1e1e1e" stroke-width="2" fill="none"></path></g></g><mask></mask><g stroke-linecap="round"><g transform="translate(1417.3822380249458 652.1280879237838) rotate(0 19.80683480867333 34.306444225745906)"><path d="M0 0 C6.6 11.44, 33.01 57.18, 39.61 68.61 M0 0 C6.6 11.44, 33.01 57.18, 39.61 68.61" stroke="#1e1e1e" stroke-width="2" fill="none"></path></g></g><mask></mask><g stroke-linecap="round"><g transform="translate(1418.2207823924427 652.0939990612944) rotate(0 -634.8115808823527 0)"><path d="M-0.58 0.28 C-212.42 0.15, -1059.48 -0.53, -1270.82 -0.45 M1.31 -0.61 C-210.19 -0.62, -1057.03 0.94, -1268.74 0.85" stroke="#1e1e1e" stroke-width="2" fill="none"></path></g></g><mask></mask><g stroke-linecap="round"><g transform="translate(991.2218519955345 653.4320860855482) rotate(0 19.806834808673273 34.306444225745906)"><path d="M0 0 C6.6 11.44, 33.01 57.18, 39.61 68.61 M0 0 C6.6 11.44, 33.01 57.18, 39.61 68.61" stroke="#1e1e1e" stroke-width="2" fill="none"></path></g></g><mask></mask><g stroke-linecap="round"><g transform="translate(1418.3425786593066 872.2145793520559) rotate(0 -92.35585013825619 38.60105520945598)"><path d="M0.18 0.75 C-14.63 10.51, -58.35 46.48, -89.1 59.04 C-119.86 71.61, -168.34 73.1, -184.34 76.13" stroke="#1e1e1e" stroke-width="2.5" fill="none" stroke-dasharray="1.5 8"></path></g><g transform="translate(1418.3425786593066 872.2145793520559) rotate(0 -92.35585013825619 38.60105520945598)"><path d="M-162.06 64.81 C-167.02 69.01, -175.66 71.8, -184.34 76.13" stroke="#1e1e1e" stroke-width="2.5" fill="none" stroke-dasharray="1.5 6"></path></g><g transform="translate(1418.3425786593066 872.2145793520559) rotate(0 -92.35585013825619 38.60105520945598)"><path d="M-159.99 81.78 C-165.6 81.23, -174.82 79.26, -184.34 76.13" stroke="#1e1e1e" stroke-width="2.5" fill="none" stroke-dasharray="1.5 6"></path></g></g><mask></mask><g stroke-linecap="round"><g transform="translate(1543.7665868143326 873.4820308762006) rotate(0 -580.5780483449281 90.05111066892295)"><path d="M-0.56 0.5 C-66.33 30.78, -201.71 175.2, -395.07 180.53 C-588.44 185.85, -1032.87 57.15, -1160.75 32.46" stroke="#1e1e1e" stroke-width="2.5" fill="none" stroke-dasharray="1.5 8"></path></g><g transform="translate(1543.7665868143326 873.4820308762006) rotate(0 -580.5780483449281 90.05111066892295)"><path d="M-1135.92 29.55 C-1141.56 31.7, -1148.13 31.61, -1160.75 32.46" stroke="#1e1e1e" stroke-width="2.5" fill="none" stroke-dasharray="1.5 6"></path></g><g transform="translate(1543.7665868143326 873.4820308762006) rotate(0 -580.5780483449281 90.05111066892295)"><path d="M-1139.86 46.19 C-1144.32 44.04, -1149.87 39.64, -1160.75 32.46" stroke="#1e1e1e" stroke-width="2.5" fill="none" stroke-dasharray="1.5 6"></path></g></g><mask></mask></svg>