<svg xmlns="http://www.w3.org/2000/svg" version="1.1" width="400" height="200" viewBox="0 0 400 200">
  
<path d="M 70.5182338664399,166.88611612420254 L 150.51823386643989,91.88611612420256 L 109.4817661335601,48.11388387579744 L 29.481766133560104,123.11388387579744Z" stroke="rgba(50, 50, 255, 1)" stroke-width="2" fill="rgba(50, 50, 255, 0.2)"/><path d="M 130,100 L 270,100 L 270,40 L 130,40Z" stroke="rgba(50, 50, 255, 1)" stroke-width="2" fill="rgba(50, 50, 255, 0.2)"/><path d="M 249.48176613356011,91.88611612420256 L 329.4817661335601,166.88611612420254 L 370.5182338664399,123.11388387579744 L 290.5182338664399,48.11388387579744Z" stroke="rgba(50, 50, 255, 1)" stroke-width="2" fill="rgba(50, 50, 255, 0.2)"/><path d="M 150.51823386643989,91.88611612420256 A 30,30,0,0,1,130,100 L 130,40 A 30,30,0,0,0,109.4817661335601,48.11388387579744 Z" stroke="rgba(255, 50, 255, 1)" stroke-width="2" fill="rgba(255, 50, 255, 0.2)"/><path d="M 270,100 A 30,30,0,0,1,249.48176613356011,91.88611612420256 L 290.5182338664399,48.11388387579744 A 30,30,0,0,0,270,40 Z" stroke="rgba(255, 50, 255, 1)" stroke-width="2" fill="rgba(255, 50, 255, 0.2)"/><path d="M 70.5182338664399,166.88611612420254 A 30,30,0,0,1,29.481766133560104,123.11388387579744 Z" stroke="rgba(50, 200, 255, 1)" stroke-width="2" fill="rgba(50, 200, 255, 0.2)"/><path d="M 329.4817661335601,166.88611612420254 A 30,30,0,0,0,370.5182338664399,123.11388387579744 Z" stroke="rgba(50, 200, 255, 1)" stroke-width="2" fill="rgba(50, 200, 255, 0.2)"/><path d="M 50,145 L 130,70 L 270,70 L 350,145" fill="none" stroke="rgba(255, 50, 50, 1)" stroke-width="2"/><text x="80" y="190" font-family="sans-serif" font-size="16" fill="rgb(50, 200, 255)" text-anchor="middle">Cap</text><text x="200" y="32" font-family="sans-serif" font-size="16" fill="rgb(50, 50, 255)" text-anchor="middle">Segment</text><text x="310" y="50" font-family="sans-serif" font-size="16" fill="rgb(255, 50, 255)" text-anchor="middle">Join</text><text x="200" y="125" font-family="sans-serif" font-size="16" fill="rgb(255, 50, 50)" text-anchor="middle">Center Line</text></svg>