<?xml version="1.0" encoding="utf-8"?>
<!-- Generator: Adobe Illustrator 16.0.0, SVG Export Plug-In . SVG Version: 6.00 Build 0)  -->
<!DOCTYPE svg PUBLIC "-//W3C//DTD SVG 1.1//EN" "http://www.w3.org/Graphics/SVG/1.1/DTD/svg11.dtd">
<svg version="1.1" id="Layer_1" xmlns="http://www.w3.org/2000/svg" xmlns:xlink="http://www.w3.org/1999/xlink" x="0px" y="0px"
	 width="250px" height="114px" viewBox="0 0 250 114" enable-background="new 0 0 250 114" xml:space="preserve">
<path fill="#EC245E" d="M16.254,27.631v7.998h0.359c0.715-1.113,1.65-2.248,2.805-3.402c1.155-1.154,2.568-2.188,4.24-3.105
	c1.67-0.912,3.561-1.67,5.67-2.268c2.107-0.596,4.477-0.896,7.104-0.896c4.059,0,7.799,0.777,11.223,2.328
	c3.422,1.555,6.367,3.684,8.836,6.389c2.465,2.707,4.375,5.891,5.73,9.551c1.352,3.662,2.029,7.602,2.029,11.82
	s-0.656,8.179-1.971,11.879c-1.312,3.701-3.184,6.925-5.611,9.67c-2.427,2.746-5.371,4.938-8.834,6.566
	c-3.463,1.631-7.385,2.446-11.76,2.446c-4.061,0-7.781-0.836-11.164-2.506c-3.385-1.672-5.99-3.938-7.82-6.807h-0.238v36.295H2.525
	V27.631H16.254z M49.684,56.045c0-2.229-0.338-4.438-1.014-6.627c-0.678-2.188-1.693-4.158-3.045-5.91
	c-1.354-1.748-3.064-3.162-5.135-4.238c-2.07-1.074-4.496-1.611-7.281-1.611c-2.627,0-4.977,0.557-7.045,1.672
	c-2.07,1.115-3.842,2.549-5.312,4.297c-1.475,1.752-2.588,3.742-3.344,5.971c-0.758,2.229-1.133,4.459-1.133,6.686
	c0,2.229,0.375,4.438,1.133,6.625c0.756,2.191,1.869,4.16,3.344,5.912c1.471,1.75,3.242,3.164,5.312,4.236
	c2.068,1.075,4.418,1.61,7.045,1.61c2.785,0,5.211-0.555,7.281-1.67c2.07-1.115,3.781-2.547,5.135-4.299
	c1.352-1.75,2.367-3.74,3.045-5.97C49.346,60.502,49.684,58.273,49.684,56.045z M189.332,24.893v63.505
	c0,3.422-0.279,6.666-0.836,9.73c-0.559,3.064-1.611,5.73-3.164,8c-1.551,2.27-3.662,4.078-6.328,5.432
	c-2.668,1.354-6.146,2.029-10.445,2.029c-1.193,0-2.389-0.08-3.582-0.238c-1.193-0.16-2.148-0.319-2.865-0.479l1.195-12.178
	c0.637,0.16,1.311,0.279,2.027,0.359c0.717,0.077,1.354,0.118,1.91,0.118c1.67,0,3.023-0.317,4.059-0.955
	c1.033-0.639,1.83-1.514,2.391-2.627c0.555-1.114,0.914-2.407,1.074-3.881c0.156-1.474,0.236-3.043,0.236-4.715V24.893H189.332z
	 M238.162,42.912c-1.275-1.672-3.025-3.123-5.254-4.357c-2.229-1.234-4.656-1.852-7.283-1.852c-2.309,0-4.416,0.479-6.326,1.434
	c-1.912,0.953-2.863,2.547-2.863,4.775s1.053,3.803,3.16,4.715c2.109,0.916,5.195,1.852,9.256,2.807
	c2.146,0.479,4.314,1.115,6.506,1.91c2.189,0.795,4.18,1.85,5.971,3.164c1.789,1.312,3.242,2.945,4.357,4.895
	c1.111,1.951,1.672,4.318,1.672,7.104c0,3.504-0.658,6.47-1.973,8.896c-1.311,2.428-3.062,4.397-5.254,5.91
	c-2.189,1.512-4.734,2.606-7.641,3.283c-2.906,0.676-5.908,1.014-9.014,1.014c-4.459,0-8.795-0.816-13.014-2.447
	c-4.219-1.629-7.721-3.959-10.506-6.982l9.432-8.836c1.592,2.07,3.66,3.781,6.209,5.133c2.547,1.354,5.371,2.029,8.477,2.029
	c1.033,0,2.088-0.117,3.164-0.357c1.074-0.237,2.068-0.614,2.984-1.133c0.914-0.518,1.65-1.213,2.209-2.09
	c0.555-0.877,0.834-1.949,0.834-3.225c0-2.389-1.094-4.098-3.281-5.133c-2.191-1.035-5.475-2.07-9.85-3.104
	c-2.15-0.479-4.24-1.094-6.27-1.853c-2.029-0.756-3.84-1.75-5.432-2.983c-1.596-1.234-2.865-2.764-3.82-4.598
	c-0.955-1.83-1.436-4.098-1.436-6.805c0-3.184,0.656-5.928,1.973-8.236c1.311-2.312,3.045-4.197,5.191-5.674
	c2.148-1.471,4.576-2.566,7.283-3.281c2.705-0.717,5.492-1.076,8.357-1.076c4.137,0,8.178,0.717,12.117,2.148
	c3.939,1.434,7.062,3.625,9.373,6.568L238.162,42.912z M153.559,72.816l8.533-2.576l1.676,5.156l-8.498,2.897l5.275,7.479
	l-4.447,3.226l-5.553-7.349l-5.408,7.154l-4.318-3.289l5.275-7.223l-8.564-3.09l1.678-5.16l8.6,2.771v-8.896h5.754v8.897H153.559z
	 M124.086,45.836c-1.473-3.301-3.52-6.088-6.148-8.357c-2.625-2.268-5.711-4-9.252-5.193c-3.543-1.193-7.383-1.791-11.521-1.791
	c-1.512,0-3.203,0.082-5.074,0.238c-1.871,0.162-3.482,0.439-4.834,0.838l0.834-18.268h34.503V0.41H74.481l-1.432,46.201
	c1.271-0.635,2.725-1.232,4.357-1.791c1.631-0.555,3.301-1.053,5.014-1.49c1.711-0.438,3.463-0.775,5.254-1.016
	c1.791-0.238,3.48-0.357,5.074-0.357c2.307,0,4.576,0.258,6.805,0.775c2.227,0.518,4.238,1.434,6.029,2.746s3.242,3.045,4.357,5.193
	c1.113,2.148,1.672,4.855,1.672,8.119c0,2.547-0.418,4.836-1.254,6.865c-0.836,2.026-1.971,3.721-3.402,5.071
	c-1.434,1.355-3.104,2.39-5.016,3.104c-1.91,0.719-3.939,1.076-6.088,1.076c-3.82,0-7.125-1.017-9.91-3.046
	c-2.787-2.028-4.775-4.715-5.969-8.059l-0.16,0.059l-10.367,9.716c2.096,3.42,4.799,6.28,8.139,8.553
	c4.854,3.302,10.824,4.955,17.91,4.955c4.217,0,8.197-0.678,11.938-2.028c3.741-1.352,7.004-3.304,9.791-5.853
	c2.786-2.545,4.994-5.67,6.627-9.371c1.629-3.701,2.445-7.897,2.445-12.597C126.295,52.939,125.559,49.141,124.086,45.836z
	 M131.07,6.842h2.521c0.244,0,0.484,0.029,0.723,0.086c0.236,0.059,0.447,0.152,0.635,0.283c0.186,0.131,0.336,0.301,0.453,0.508
	c0.115,0.207,0.172,0.457,0.172,0.749c0,0.365-0.104,0.667-0.311,0.904c-0.207,0.237-0.479,0.407-0.812,0.511v0.02
	c0.408,0.055,0.742,0.213,1.006,0.475c0.262,0.262,0.393,0.611,0.393,1.051c0,0.354-0.07,0.65-0.209,0.891
	c-0.143,0.24-0.324,0.434-0.555,0.58c-0.229,0.146-0.488,0.251-0.785,0.314c-0.295,0.064-0.596,0.096-0.898,0.096h-2.33V6.842
	H131.07z M132.221,9.473h1.023c0.383,0,0.676-0.076,0.877-0.229c0.201-0.153,0.301-0.369,0.301-0.648c0-0.293-0.104-0.5-0.311-0.621
	c-0.207-0.122-0.529-0.184-0.969-0.184h-0.924v1.682H132.221z M132.221,12.341h1.031c0.146,0,0.307-0.011,0.477-0.032
	s0.328-0.064,0.471-0.133c0.143-0.066,0.262-0.164,0.355-0.292c0.096-0.128,0.143-0.298,0.143-0.511
	c0-0.342-0.115-0.579-0.348-0.713c-0.23-0.135-0.582-0.201-1.051-0.201h-1.078V12.341z M136.936,6.842h4.283v1.004h-3.135v1.645
	h2.969v0.969h-2.969v1.827h3.299v1.022h-4.447V6.842z M144.088,7.846h-1.982V6.842h5.117v1.004h-1.982v5.463h-1.152V7.846
	L144.088,7.846z M149.449,6.842h0.996l2.787,6.467h-1.316l-0.602-1.479h-2.807l-0.584,1.479h-1.289L149.449,6.842z M150.912,10.843
	l-0.996-2.631l-1.014,2.631H150.912z"/>
</svg>
